<svg width="50" height="50" viewBox="0 0 50 50" fill="none" xmlns="http://www.w3.org/2000/svg">
<path d="M18.5503 26.9188H41.0394V22.3212C41.0394 21.7689 41.4871 21.3212 42.0394 21.3212H42.3804C42.9327 21.3212 43.3804 21.7689 43.3804 22.3212V30.9898H15.5351L9.81763 20.2307L11.5135 19.5988C12.8963 19.0835 14.4485 19.6504 15.1737 20.9355L18.5503 26.9188Z" fill="black"/>
<path fill-rule="evenodd" clip-rule="evenodd" d="M23.4595 21.5056C22.8264 21.5056 22.3132 22.0188 22.3132 22.6519H36.3803C36.3803 22.0188 35.8671 21.5056 35.234 21.5056H23.4595ZM22.3132 22.6519H23.7199V27.2371H22.3132V22.6519ZM26.5334 22.6519H27.9401V27.2371H26.5334V22.6519ZM32.1602 27.2371V22.6519H30.7534V27.2371H32.1602ZM34.9736 27.2371V22.6519H36.3803V27.2371H34.9736Z" fill="black"/>
<path d="M39.4216 13L40.3568 15.8352L43.2771 16.7802L40.3568 17.8143L39.4217 21.978L38.4291 17.8143L35.5662 16.7802L38.4291 15.8352L39.4216 13Z" fill="black"/>
<path d="M8.57837 26.2307L9.51354 29.0659L12.4338 30.0109L9.51354 31.045L8.5784 35.2087L7.58583 31.045L4.72295 30.0109L7.58583 29.0659L8.57837 26.2307Z" fill="black"/>
<path fill-rule="evenodd" clip-rule="evenodd" d="M15.5662 31.9011H43.7317V33.5212H38.7613V34.548C39.2565 34.8281 39.5897 35.3516 39.5897 35.9513C39.5897 36.8461 38.8479 37.5714 37.9329 37.5714C37.0179 37.5714 36.2761 36.8461 36.2761 35.9513C36.2761 35.3516 36.6093 34.828 37.1045 34.5479V33.5212H23.0217V34.548C23.5169 34.8281 23.8501 35.3516 23.8501 35.9513C23.8501 36.8461 23.1083 37.5714 22.1933 37.5714C21.2783 37.5714 20.5365 36.8461 20.5365 35.9513C20.5365 35.3516 20.8697 34.828 21.3649 34.5479V33.5212H15.5662V31.9011Z" fill="black"/>
</svg>
